<svg width="3120" height="1091" viewBox="0 0 3120 1091" fill="none" xmlns="http://www.w3.org/2000/svg">
<path d="M1273.6 500.6C1343.2 500.6 1415.07 510.333 1489.2 529.8V579C1415.07 558.467 1343.73 548.2 1275.2 548.2C1250.67 548.2 1238.4 559 1238.4 580.6V604.6H1278.4V649.4H1238.4V873H1182V649.4H1142V604.6H1182V580.2C1182 556.2 1189.87 537 1205.6 522.6C1221.33 507.933 1244 500.6 1273.6 500.6ZM1519.7 604.6V649.4H1479.7V873H1422.9V819C1408.23 832.067 1389.7 838.6 1367.3 838.6C1342.77 838.6 1322.1 831.267 1305.3 816.6C1288.77 801.933 1280.5 781.8 1280.5 756.2C1280.5 731.667 1288.63 711.4 1304.9 695.4C1321.43 679.133 1343.03 671 1369.7 671C1380.37 671 1389.7 672.067 1397.7 674.2V723C1388.63 720.6 1380.77 719.4 1374.1 719.4C1363.7 719.4 1355.03 722.6 1348.1 729C1341.17 735.4 1337.7 743.933 1337.7 754.6C1337.7 767.133 1341.17 776.867 1348.1 783.8C1355.3 790.467 1365.57 793.8 1378.9 793.8C1389.57 793.8 1399.57 790.333 1408.9 783.4C1418.23 776.2 1422.9 767.267 1422.9 756.6V649.4H1254.5V604.6H1519.7ZM1729.12 798.2V797.4C1720.05 795.267 1713.25 793.533 1708.72 792.2C1708.18 792.2 1707.12 792.2 1705.52 792.2C1704.18 791.933 1703.12 791.8 1702.32 791.8C1690.58 791.8 1681.25 795 1674.32 801.4C1667.38 807.533 1663.92 814.6 1663.92 822.6C1663.92 829.8 1666.18 835.533 1670.72 839.8C1675.52 843.8 1681.65 845.8 1689.12 845.8C1700.58 845.8 1710.05 841.267 1717.52 832.2C1725.25 823.133 1729.12 811.8 1729.12 798.2ZM1624.32 646.6C1616.85 646.6 1610.98 648.867 1606.72 653.4C1602.45 657.667 1600.32 663.4 1600.32 670.6C1600.32 684.467 1608.72 696.867 1625.52 707.8C1640.18 699 1647.52 687.133 1647.52 672.2C1647.52 665.533 1645.25 659.667 1640.72 654.6C1636.45 649.267 1630.98 646.6 1624.32 646.6ZM1729.12 604.6H1825.92V649.4H1785.92V895.8H1729.12V865.8C1713.92 883.4 1694.98 892.2 1672.32 892.2C1653.12 892.2 1637.38 886.733 1625.12 875.8C1612.85 864.867 1606.72 850.333 1606.72 832.2C1606.72 819.933 1610.32 808.6 1617.52 798.2C1624.98 787.8 1635.25 779.667 1648.32 773.8C1647.25 773.267 1644.32 772.067 1639.52 770.2C1634.72 768.333 1631.12 766.867 1628.72 765.8L1550.72 813.8L1506.72 779.8L1579.52 737C1556.05 717.8 1544.32 695.133 1544.32 669C1544.32 650.067 1551.52 633.933 1565.92 620.6C1580.58 607.267 1599.65 600.6 1623.12 600.6C1646.85 600.6 1666.18 607.133 1681.12 620.2C1696.05 633.267 1703.52 650.467 1703.52 671.8C1703.52 694.467 1693.25 713.933 1672.72 730.2C1689.78 736.333 1708.58 742.333 1729.12 748.2V604.6ZM2033.37 500.6C2102.97 500.6 2174.83 510.333 2248.97 529.8V579C2174.83 558.467 2103.5 548.2 2034.97 548.2C2010.43 548.2 1998.17 559 1998.17 580.6V604.6H2038.17V649.4H1998.17V873H1941.77V649.4H1901.77V604.6H1941.77V580.2C1941.77 556.2 1949.63 537 1965.37 522.6C1981.1 507.933 2003.77 500.6 2033.37 500.6ZM2279.47 604.6V649.4H2239.47V873H2182.67V819C2168 832.067 2149.47 838.6 2127.07 838.6C2102.53 838.6 2081.87 831.267 2065.07 816.6C2048.53 801.933 2040.27 781.8 2040.27 756.2C2040.27 731.667 2048.4 711.4 2064.67 695.4C2081.2 679.133 2102.8 671 2129.47 671C2140.13 671 2149.47 672.067 2157.47 674.2V723C2148.4 720.6 2140.53 719.4 2133.87 719.4C2123.47 719.4 2114.8 722.6 2107.87 729C2100.93 735.4 2097.47 743.933 2097.47 754.6C2097.47 767.133 2100.93 776.867 2107.87 783.8C2115.07 790.467 2125.33 793.8 2138.67 793.8C2149.33 793.8 2159.33 790.333 2168.67 783.4C2178 776.2 2182.67 767.267 2182.67 756.6V649.4H2014.27V604.6H2279.47ZM2520.48 604.6V649.4H2480.48V873H2423.68V819C2409.01 832.067 2390.48 838.6 2368.08 838.6C2343.55 838.6 2322.88 831.267 2306.08 816.6C2289.55 801.933 2281.28 781.8 2281.28 756.2C2281.28 731.667 2289.41 711.4 2305.68 695.4C2322.21 679.133 2343.81 671 2370.48 671C2381.15 671 2390.48 672.067 2398.48 674.2V723C2389.41 720.6 2381.55 719.4 2374.88 719.4C2364.48 719.4 2355.81 722.6 2348.88 729C2341.95 735.4 2338.48 743.933 2338.48 754.6C2338.48 767.133 2341.95 776.867 2348.88 783.8C2356.08 790.467 2366.35 793.8 2379.68 793.8C2390.35 793.8 2400.35 790.333 2409.68 783.4C2419.01 776.2 2423.68 767.267 2423.68 756.6V649.4H2255.28V604.6H2520.48ZM2496.3 649.4V604.6H2632.7V649.4H2592.7V873H2536.3V649.4H2496.3ZM2814 712.6H2712C2702.13 712.6 2697.2 716.2 2697.2 723.4C2697.2 730.333 2700.93 736.733 2708.4 742.6C2718.53 740.467 2729.46 739.4 2741.2 739.4C2765.46 739.4 2785.2 745.133 2800.4 756.6C2815.6 768.067 2823.2 782.467 2823.2 799.8C2823.2 809.933 2822 817.667 2819.6 823H2764.4C2767.06 817.933 2768.4 811.267 2768.4 803C2768.4 797.933 2765.73 793.8 2760.4 790.6C2755.06 787.133 2748 785.4 2739.2 785.4C2725.6 785.4 2715.2 787.933 2708 793C2700.8 798.067 2697.2 804.733 2697.2 813C2697.2 834.6 2715.33 845.4 2751.6 845.4C2765.2 845.4 2783.6 842.867 2806.8 837.8V883.8C2785.46 888.333 2766.26 890.6 2749.2 890.6C2714 890.6 2687.06 882.867 2668.4 867.4C2649.73 851.667 2640.4 833.4 2640.4 812.6C2640.4 791.533 2649.2 774.2 2666.8 760.6C2648.13 749.667 2638.8 735 2638.8 716.6C2638.8 701.133 2644.53 689.267 2656 681C2667.46 672.733 2682.26 668.6 2700.4 668.6H2758V649.4H2608.8V604.6H2853.2V649.4H2814V712.6Z" fill="white"/>
<path d="M1300.41 280.4H1368.01V198.4H1308.81V244C1308.81 258.133 1306.01 270.267 1300.41 280.4ZM1464.41 153.6V198.4H1424.41V422H1368.01V324.8H1308.01C1292.81 324.8 1276.15 323.733 1258.01 321.6L1332.81 422H1264.81L1187.61 314.4V275.2H1216.01C1240.55 275.2 1252.81 264.933 1252.81 244.4V198.4H1167.61V153.6H1464.41ZM1787.87 198.4H1642.27V242C1654 231.6 1668.13 226.4 1684.67 226.4C1708.4 226.4 1727.47 233.867 1741.87 248.8C1756.53 263.467 1763.87 282.267 1763.87 305.2C1763.87 330 1755.6 349.867 1739.07 364.8C1722.53 379.467 1701.33 386.8 1675.47 386.8C1671.47 386.8 1668.4 386.667 1666.27 386.4V341.2C1667.87 341.467 1670 341.6 1672.67 341.6C1683.6 341.6 1692 338.267 1697.87 331.6C1704 324.933 1707.07 316.4 1707.07 306C1707.07 296.4 1704.27 288.267 1698.67 281.6C1693.07 274.667 1684.93 271.2 1674.27 271.2C1664.93 271.2 1657.2 274.667 1651.07 281.6C1645.2 288.267 1642.27 297.2 1642.27 308.4V422H1585.47V375.6C1574 385.733 1559.87 390.8 1543.07 390.8C1519.33 390.8 1500.13 383.467 1485.47 368.8C1471.07 353.867 1463.87 334.933 1463.87 312C1463.87 287.2 1472.13 267.467 1488.67 252.8C1505.2 237.867 1526.4 230.4 1552.27 230.4C1556 230.4 1559.07 230.533 1561.47 230.8V276C1559.87 275.733 1557.73 275.6 1555.07 275.6C1544.13 275.6 1535.6 278.933 1529.47 285.6C1523.6 292.267 1520.67 300.8 1520.67 311.2C1520.67 320.8 1523.47 329.067 1529.07 336C1534.67 342.667 1542.8 346 1553.47 346C1562.8 346 1570.4 342.667 1576.27 336C1582.4 329.067 1585.47 320 1585.47 308.8V198.4H1440.27V153.6H1787.87V198.4ZM2092.11 153.6V198.4H2052.11V422H1994.91V271.6C1993.31 271.333 1991.04 271.2 1988.11 271.2C1975.31 271.2 1966.11 274.4 1960.51 280.8C1954.91 287.2 1952.11 297.467 1952.11 311.6V337.6H1894.91V310.8C1894.91 288.133 1887.17 276.8 1871.71 276.8C1854.11 276.8 1845.31 290 1845.31 316.4C1845.31 355.6 1866.11 375.2 1907.71 375.2C1913.04 375.2 1918.77 374.8 1924.91 374V420C1917.71 421.067 1909.84 421.6 1901.31 421.6C1867.17 421.6 1839.97 412 1819.71 392.8C1799.44 373.6 1789.31 347.867 1789.31 315.6C1789.31 289.467 1795.97 268.667 1809.31 253.2C1822.91 237.733 1841.71 230 1865.71 230C1881.71 230 1894.64 233.467 1904.51 240.4C1914.64 247.067 1920.91 255.467 1923.31 265.6C1930.77 239.733 1951.31 226.8 1984.91 226.8C1987.31 226.8 1990.64 227.067 1994.91 227.6V198.4H1763.71V153.6H2092.11Z" fill="white"/>
<mask id="mask0_108_30" style="mask-type:luminance" maskUnits="userSpaceOnUse" x="0" y="112" width="993" height="786">
<path d="M992.336 112H0V897.212H992.336V112Z" fill="white"/>
</mask>
<g mask="url(#mask0_108_30)">
<path d="M443.465 121.906L73.2003 266.708C52.6102 274.762 52.8235 302.409 73.543 310.171L445.351 449.524C478.018 461.77 514.399 461.77 547.067 449.524L918.88 310.165C939.592 302.409 939.817 274.767 919.215 266.713L548.964 121.9C515.184 108.689 477.239 108.689 443.459 121.9" fill="#FCB400"/>
<path d="M529.198 525.616V873.748C529.198 890.297 546.864 901.639 563.148 895.543L977.457 743.55C982.078 741.816 986.042 738.817 988.834 734.929C991.627 731.041 993.121 726.45 993.115 721.755V373.629C993.115 357.071 975.449 345.733 959.168 351.834L544.86 503.826C540.24 505.558 536.277 508.562 533.484 512.448C530.692 516.334 529.199 520.918 529.198 525.616Z" fill="#18BFFF"/>
<path d="M432.45 543.58L309.493 599.691L297.008 605.394L37.453 722.938C21.0056 730.442 0 719.105 0 701.83V375.089C0 368.839 3.39053 363.443 7.93742 359.384C9.80278 357.629 11.919 356.129 14.2245 354.928C20.4218 351.411 29.2686 350.471 36.7906 353.283L430.384 500.68C450.391 508.182 451.962 534.672 432.45 543.58Z" fill="#F82B60"/>
<path d="M432.45 543.58L309.492 599.691L7.93713 359.379C9.80284 357.625 11.9191 356.127 14.2242 354.928C20.4215 351.411 29.2683 350.471 36.7903 353.283L430.384 500.68C450.391 508.182 451.962 534.672 432.45 543.58Z" fill="black" fill-opacity="0.25"/>
</g>
</svg>
